# xmcd
#
# Track frame offsets: 
#        150
#        12965
#        25717
#        36512
#        48437
#        61700
#        73960
#        83860
#        97362
#        111332
#
# Disc length: 1677 seconds
#
# Revision: 2
# Processed by: cddbd v1.5.2PL0 Copyright (c) Steve Scherf et al.
# Submitted via: ExactAudioCopy v1.0b3
#
DISCID=89068b0a
DTITLE=Mickey Gilley - Mellow Country
DYEAR=1991
DGENRE=Country
TTITLE0=Room Full Of Roses
TTITLE1=Swinging Doors
TTITLE2=Don't Be Angry
TTITLE3=Chains Of Love
TTITLE4=True Love Ways
TTITLE5=I'll Sail My Ship Alone
TTITLE6=I Love You So Much It Hurts Me
TTITLE7=Don't The Girls All Get Prettier At Closing Time
TTITLE8=You Don't Know Me
TTITLE9=Talk To Me
EXTD=
EXTT0=
EXTT1=
EXTT2=
EXTT3=
EXTT4=
EXTT5=
EXTT6=
EXTT7=
EXTT8=
EXTT9=
PLAYORDER=
